PathFileType  4	(X/Y/Z) C:\Users\antoi\Documents\MyRepositories\mobilecap\ResultsAnalysis
DataRate	CameraRate	NumFrames	NumMarkers	Units	OrigDataRate	OrigDataStartFrame	OrigNumFrames
100.0	100.0	7	51	mm	100.0	789	901
Frame#	Time	r_knee			r_shank_antsup			r_ankle			r_calc			r_5meta			r_toe			L_knee			L_shank_antsup			L_ankle			L_calc			L_5meta			L_toe			r_sh2			r_sh3			r_sh4			L_sh2			L_sh3			r_thigh1			r_thigh2			r_thigh3			r_thigh4			r_thigh5			L_thigh1			L_thigh2			L_thigh3			L_thigh4			r.ASIS			r.PSIS			L.ASIS			L.PSIS			C7			R_Shoulder			L_Shoulder			R_Sternum			L_Sternum			R_humerus			R_elbow_med			R_elbow_lat			R_forearm			R_wrist_radius			R_wrist_ulna			L_humerus			L_elbow_med			L_elbow_lat			L_forearm			L_wrist_radius			L_wrist_ulna			R_HJC			L_HJC			R_HJC_reg			L_HJC_reg			
		X1	Y1	Z1	X2	Y2	Z2	X3	Y3	Z3	X4	Y4	Z4	X5	Y5	Z5	X6	Y6	Z6	X7	Y7	Z7	X8	Y8	Z8	X9	Y9	Z9	X10	Y10	Z10	X11	Y11	Z11	X12	Y12	Z12	X13	Y13	Z13	X14	Y14	Z14	X15	Y15	Z15	X16	Y16	Z16	X17	Y17	Z17	X18	Y18	Z18	X19	Y19	Z19	X20	Y20	Z20	X21	Y21	Z21	X22	Y22	Z22	X23	Y23	Z23	X24	Y24	Z24	X25	Y25	Z25	X26	Y26	Z26	X27	Y27	Z27	X28	Y28	Z28	X29	Y29	Z29	X30	Y30	Z30	X31	Y31	Z31	X32	Y32	Z32	X33	Y33	Z33	X34	Y34	Z34	X35	Y35	Z35	X36	Y36	Z36	X37	Y37	Z37	X38	Y38	Z38	X39	Y39	Z39	X40	Y40	Z40	X41	Y41	Z41	X42	Y42	Z42	X43	Y43	Z43	X44	Y44	Z44	X45	Y45	Z45	X46	Y46	Z46	X47	Y47	Z47	X48	Y48	Z48	X49	Y49	Z49	X50	Y50	Z50	X51	Y51	Z51	

789	7.88000000	-189.90728	586.38157	-314.93395	-163.79712	441.98229	-313.25229	-298.33195	101.81721	-304.71309	-358.30245	70.09542	-365.79940	-164.00400	43.29240	-272.70222	-126.31305	74.28306	-321.73383	-254.22464	594.54538	-853.88874	-213.31867	400.33634	-891.67550	-341.50610	117.31277	-924.91371	-396.19670	72.70264	-869.51364	-197.78143	39.14217	-968.31667	-158.26109	73.19945	-909.59195	-190.82784	331.89783	-316.57195	-228.00946	454.44247	-276.74352	-257.07089	346.50828	-269.26807	-291.18703	430.65068	-920.54087	-322.04432	314.92747	-921.54078	-382.83935	802.57041	-290.96880	-286.91302	743.31343	-290.66604	-304.60935	677.69183	-286.05287	-445.68318	711.28719	-313.36152	-345.63793	646.07116	-308.84414	-404.16108	831.89848	-747.39921	-308.85722	751.16988	-800.00256	-484.36819	758.82782	-762.95857	-387.48127	678.98740	-824.26818	-418.09087	896.49271	-358.53451	-548.31759	1022.96789	-457.06783	-428.92292	864.25706	-630.13153	-544.43688	1015.60539	-547.45315	-99.94885	1235.38611	-504.53328	-21.37997	1131.74100	-355.09721	-55.87039	1165.06217	-666.83098	-51.51147	1077.09446	-493.33455	-56.75816	1078.04721	-530.90477	78.64852	928.77154	-294.31342	75.05233	771.76115	-307.54994	98.69976	808.80896	-233.98246	243.34630	919.20623	-342.41274	297.72529	968.77914	-392.46109	321.34213	941.77888	-382.44327	61.74764	952.88286	-738.44674	29.48411	818.37156	-744.07811	75.67168	861.59277	-802.63867	228.26420	931.88552	-681.70055	269.88725	960.12178	-628.03612	289.47114	941.46956	-649.35798	-538.43583	864.53427	-388.56406	-547.59356	849.42781	-585.24715	-531.87809	860.82465	-399.34902	-524.15223	846.16849	-579.24651	
790	7.89000000	-188.03404	585.74338	-315.42640	-162.06107	441.41355	-313.87749	-298.33846	101.91633	-304.95594	-358.25765	70.13839	-365.91860	-164.01681	43.22274	-272.89188	-126.20830	74.16537	-321.92406	-253.99213	594.26501	-852.98084	-213.01412	400.28041	-891.11086	-341.52314	117.34256	-924.74358	-396.43548	72.89492	-869.57166	-197.79238	39.18636	-968.10330	-158.24742	73.12252	-909.37207	-190.31272	330.08185	-317.76795	-226.22826	454.18293	-277.19968	-255.56480	346.25867	-269.93323	-290.79440	430.67648	-919.93188	-321.73997	314.83572	-920.91364	-383.28321	799.56308	-290.73819	-286.56249	741.77565	-290.55835	-303.53315	675.86155	-285.67342	-445.21910	707.98497	-311.80529	-344.30479	643.76039	-308.24163	-406.06363	830.01637	-745.10883	-309.98773	750.38584	-798.23939	-485.77363	756.46748	-761.44121	-388.10182	677.78353	-823.02918	-418.29107	889.38559	-357.04969	-548.39955	1017.89753	-454.52427	-431.12814	859.41171	-629.31550	-545.02145	1011.08575	-544.98729	-98.22743	1226.09063	-503.05877	-19.83190	1121.68186	-353.88966	-54.64017	1155.57559	-665.38429	-51.06143	1067.43747	-492.09476	-56.59877	1068.27927	-529.44185	80.98975	919.92793	-293.16092	79.01685	762.20529	-306.28174	101.88171	800.05420	-232.73480	245.80790	911.24625	-341.53262	299.82134	961.00570	-391.74179	323.55447	934.25470	-381.59617	63.17701	944.16781	-737.50018	31.40746	809.56411	-743.21869	77.33706	852.92349	-801.52886	229.99913	923.61392	-681.13545	271.68642	951.88736	-627.40887	291.28660	933.19343	-648.66058	-539.28670	858.79455	-387.05310	-549.62201	845.15487	-583.78609	-532.91858	855.04221	-397.62963	-526.18471	841.46315	-577.97291	
791	7.90000000	-186.11171	585.05702	-315.79132	-160.36655	440.84785	-314.22820	-298.16583	101.94160	-305.24950	-358.14667	70.10808	-365.98873	-163.93927	43.29831	-272.83232	-126.08366	73.98564	-322.20315	-253.86377	594.01409	-852.14971	-212.83993	400.23728	-890.68656	-341.58254	117.36533	-924.59101	-397.03302	73.26925	-869.61137	-197.82276	39.25097	-967.84774	-158.24193	73.15697	-909.23024	-189.11438	329.43425	-318.11502	-224.38502	453.83262	-277.62952	-254.82987	346.95789	-270.08976	-290.61727	430.65719	-919.29100	-321.74411	314.72522	-920.36061	-383.70636	796.71122	-289.89996	-286.31337	739.99117	-290.18399	-302.48313	673.90033	-285.26165	-444.61762	704.42560	-310.56347	-342.96656	641.34643	-307.69031	-407.89175	828.21684	-743.15692	-311.16739	749.62996	-796.73800	-487.14996	754.18606	-760.15416	-388.76895	676.57975	-821.80670	-418.64472	884.52141	-355.65427	-548.47485	1012.86843	-452.05946	-432.24894	855.71111	-628.65263	-545.63080	1006.71802	-542.45794	-96.55244	1217.03386	-501.62195	-18.36306	1111.89365	-352.82711	-53.43987	1146.38492	-663.90425	-50.40472	1058.33115	-490.80300	-56.46488	1058.85880	-527.97200	83.21893	911.32111	-292.09558	82.63403	753.07371	-305.58743	105.00450	791.55541	-231.71696	248.14972	903.44509	-340.77391	301.81290	953.43913	-391.02681	325.72336	926.84109	-380.91739	64.54177	935.62875	-736.56661	33.25326	801.06022	-742.34940	78.90906	844.16762	-799.91648	231.69253	915.58099	-680.60217	273.38855	943.84582	-626.88118	293.01845	925.22154	-648.14481	-539.41728	853.69732	-385.56999	-550.47794	841.14393	-582.33710	-533.13115	849.84427	-395.89178	-527.44283	837.54042	-576.78291	
792	7.91000000	-184.21607	584.28210	-315.97857	-158.74382	440.29687	-314.37620	-297.82750	101.87074	-305.53116	-357.99940	70.07361	-366.11764	-163.87255	43.31820	-272.77446	-125.89659	73.78466	-322.39328	-253.82745	593.75596	-851.36730	-212.76556	400.15639	-890.42695	-341.68882	117.39663	-924.49227	-397.43862	73.44868	-869.60411	-197.87712	39.30740	-967.66595	-158.33229	73.22202	-909.10752	-187.76240	329.17233	-318.07899	-222.59216	453.40406	-277.83647	-253.73613	346.72923	-270.11005	-290.62104	430.70961	-918.76277	-321.85641	314.70359	-919.94925	-384.02022	793.82782	-289.13887	-286.06798	738.07246	-289.59557	-301.50820	671.82418	-284.66606	-444.02172	700.69149	-309.58546	-341.68005	638.85575	-306.98673	-409.70046	826.38666	-741.39645	-312.43948	748.84023	-795.34949	-488.45422	752.00635	-759.03458	-389.43016	675.39464	-821.00302	-419.08960	880.98657	-354.15837	-548.59188	1007.96350	-449.59068	-432.71147	852.48934	-627.88686	-546.23264	1002.40930	-539.98234	-95.02296	1208.25009	-500.10315	-16.95529	1102.35869	-351.85359	-52.27832	1137.48047	-662.43679	-50.26622	1049.03067	-489.40082	-56.24118	1049.84832	-526.74740	85.35501	902.95847	-291.11633	86.19773	744.24474	-304.71885	108.04279	783.36249	-230.66702	250.35976	895.83793	-340.01058	303.68489	946.08355	-390.43013	327.81983	919.63317	-380.33691	65.87012	927.33270	-735.54113	35.04485	792.80222	-741.38577	80.41835	835.45443	-798.02988	233.32154	907.64932	-679.89620	275.03040	936.06708	-626.39309	294.65344	917.54907	-647.69095	-539.18937	849.06706	-383.96608	-550.66431	837.20372	-580.75238	-532.93823	845.08999	-394.03983	-528.20104	833.93902	-575.49586	
793	7.92000000	-182.48560	583.46377	-315.86734	-157.16433	439.66837	-314.48119	-297.48934	101.84356	-305.70625	-357.86122	70.10588	-366.32928	-163.83204	43.26853	-272.76479	-125.67844	73.58289	-322.47773	-253.79446	593.49886	-850.77964	-212.68639	400.03804	-890.33993	-341.79819	117.43357	-924.43648	-397.50264	73.34152	-869.57925	-197.92783	39.38235	-967.64758	-158.44342	73.33644	-909.07665	-186.61399	328.62810	-318.24551	-220.92215	452.89501	-277.81253	-251.83354	345.05358	-270.36629	-290.63510	430.79285	-918.43249	-321.90005	314.79847	-919.67826	-384.34825	790.92254	-288.36732	-285.86774	736.13400	-288.83630	-300.59755	669.65457	-283.94789	-443.54787	697.02295	-308.53786	-340.54238	636.35124	-306.18745	-411.45078	824.55083	-739.81265	-313.61793	747.95810	-794.10480	-489.68115	749.78952	-757.93838	-390.06626	674.25280	-820.55100	-419.67407	876.61033	-352.64703	-548.81901	1003.27111	-447.10578	-433.71458	848.71262	-626.72571	-546.84541	998.15692	-537.50413	-93.62670	1199.75315	-498.51426	-15.45207	1093.07923	-350.95162	-51.25002	1128.88546	-661.01743	-50.10162	1040.06216	-488.22997	-56.12414	1041.08930	-525.51233	87.41634	894.80058	-290.16060	89.70577	735.58477	-303.67057	110.95481	775.46922	-229.50801	252.47598	888.44522	-339.27681	305.46267	939.00979	-389.89842	329.78515	912.72817	-379.75975	67.20946	919.42267	-734.41979	36.77820	784.87167	-740.56057	81.90978	827.68743	-797.24251	234.87181	900.04656	-679.23609	276.64878	928.63302	-625.95782	296.23178	910.17966	-647.24584	-539.50170	844.39750	-382.22953	-551.49852	833.24046	-579.02462	-533.29396	840.39018	-392.23792	-529.32473	830.10725	-573.96905	
794	7.93000000	-180.96577	582.68405	-315.39667	-155.70687	438.95668	-314.40617	-297.21179	101.89877	-305.81564	-357.72542	70.18817	-366.56949	-163.79263	43.24612	-272.73552	-125.52909	73.42317	-322.48888	-253.66539	593.26056	-850.59114	-212.51757	399.91090	-890.45140	-341.85017	117.45515	-924.40831	-397.50112	73.23308	-869.56851	-197.95290	39.45680	-967.72604	-158.48079	73.46964	-909.14290	-185.52877	328.06160	-318.42219	-219.42819	452.36579	-277.58254	-250.26580	344.02195	-270.47750	-290.52422	430.81289	-918.34104	-321.88129	314.88112	-919.55024	-384.87606	787.97382	-286.88399	-285.84292	734.21435	-287.87034	-299.85109	667.53237	-283.12261	-443.26757	693.74574	-306.93096	-339.57557	633.87944	-305.42399	-413.03154	822.76200	-738.51647	-314.66662	747.13782	-793.19203	-490.75409	747.54815	-756.95915	-390.61157	673.16025	-820.23993	-420.23152	871.39926	-351.25912	-549.11602	998.73544	-444.69480	-435.21571	844.70800	-625.38522	-547.50116	994.05020	-534.92877	-92.26930	1191.54628	-497.01487	-13.86229	1084.11158	-350.21059	-50.40352	1120.64444	-659.57976	-49.85492	1031.68612	-487.30574	-56.21044	1032.52526	-524.06891	89.45483	886.84133	-289.29422	92.95659	727.35009	-302.99838	113.73298	767.74414	-228.55506	254.50222	881.28107	-338.62391	307.15598	932.23748	-389.25648	331.64027	906.06552	-379.19268	68.52228	911.97334	-733.36805	38.41596	777.38083	-739.91496	83.36732	821.01849	-797.69114	236.34567	892.95649	-678.83581	278.25665	921.52051	-625.61606	297.81944	903.18070	-646.97957	-540.16516	839.60775	-380.52086	-552.87285	829.38531	-577.32143	-533.99804	835.65163	-390.58686	-530.74662	826.21509	-572.36108	
795	7.94000000	-179.65760	581.99690	-314.59872	-154.50023	438.29985	-313.90612	-296.97721	101.88219	-305.94748	-357.57603	70.23509	-366.78063	-163.77525	43.19263	-272.73718	-125.45926	73.25164	-322.42014	-253.41860	593.02786	-850.76506	-212.26609	399.74998	-890.67271	-341.84905	117.45261	-924.40368	-397.51537	73.27213	-869.55009	-197.96097	39.48242	-967.83986	-158.45657	73.51368	-909.22617	-184.53736	327.57624	-318.16087	-218.17222	451.87650	-277.04652	-249.74919	344.48535	-270.06548	-290.28460	430.76279	-918.48208	-321.81569	314.88148	-919.58989	-385.60372	785.07896	-284.94667	-286.01730	732.37318	-286.74474	-299.38188	665.53456	-282.11671	-443.19387	690.85501	-304.86802	-338.76989	631.55248	-304.51460	-414.40816	820.97240	-737.34425	-315.82192	746.64758	-792.65916	-491.59616	745.44622	-756.23276	-391.01074	672.05922	-820.01750	-420.58731	867.04481	-349.99959	-549.41430	994.35391	-442.45751	-436.08901	841.31150	-624.11458	-548.10966	990.11883	-532.44866	-90.91911	1183.72708	-495.70916	-12.47333	1075.43241	-349.43425	-49.63673	1112.82419	-658.13712	-49.79889	1023.66779	-486.38312	-56.37618	1024.34135	-522.69131	91.48647	879.15812	-288.60529	95.85782	719.76401	-302.61655	116.40466	760.13663	-227.85037	256.43992	874.38047	-338.00937	308.79003	925.73293	-388.61150	333.43549	899.54915	-378.72578	69.72558	904.99741	-732.51161	39.93865	770.31105	-739.25916	84.71810	814.60033	-797.91262	237.75925	886.23116	-678.57578	279.80954	914.70785	-625.28542	299.39287	896.55483	-646.88503	-540.37083	835.10656	-378.94595	-553.59517	825.71437	-575.75548	-534.19859	831.22301	-389.09539	-531.56435	822.66888	-570.87228	
